<svg xmlns="http://www.w3.org/2000/svg" viewBox="0 0 1280 720" preserveAspectRatio="xMidYMid slice">
  <rect width="1280" height="720" fill="#2E2620"/>
  <radialGradient id="lg" cx="50%" cy="50%" r="60%">
    <stop offset="0%" stop-color="#3d2f1e" stop-opacity="0.7"/>
    <stop offset="100%" stop-color="#2E2620" stop-opacity="0"/>
  </radialGradient>
  <rect width="1280" height="720" fill="url(#lg)"/>
  <!-- gold lotus motif -->
  <g transform="translate(640,345)" opacity="0.20">
    <ellipse cx="0" cy="-52" rx="10" ry="28" fill="#C9A227" transform="rotate(0)"/>
    <ellipse cx="0" cy="-52" rx="10" ry="28" fill="#C9A227" transform="rotate(45)"/>
    <ellipse cx="0" cy="-52" rx="10" ry="28" fill="#C9A227" transform="rotate(90)"/>
    <ellipse cx="0" cy="-52" rx="10" ry="28" fill="#C9A227" transform="rotate(135)"/>
    <ellipse cx="0" cy="-52" rx="10" ry="28" fill="#C9A227" transform="rotate(180)"/>
    <ellipse cx="0" cy="-52" rx="10" ry="28" fill="#C9A227" transform="rotate(225)"/>
    <ellipse cx="0" cy="-52" rx="10" ry="28" fill="#C9A227" transform="rotate(270)"/>
    <ellipse cx="0" cy="-52" rx="10" ry="28" fill="#C9A227" transform="rotate(315)"/>
    <ellipse cx="0" cy="-32" rx="7" ry="18" fill="#C9A227" transform="rotate(22.5)"/>
    <ellipse cx="0" cy="-32" rx="7" ry="18" fill="#C9A227" transform="rotate(67.5)"/>
    <ellipse cx="0" cy="-32" rx="7" ry="18" fill="#C9A227" transform="rotate(112.5)"/>
    <ellipse cx="0" cy="-32" rx="7" ry="18" fill="#C9A227" transform="rotate(157.5)"/>
    <ellipse cx="0" cy="-32" rx="7" ry="18" fill="#C9A227" transform="rotate(202.5)"/>
    <ellipse cx="0" cy="-32" rx="7" ry="18" fill="#C9A227" transform="rotate(247.5)"/>
    <ellipse cx="0" cy="-32" rx="7" ry="18" fill="#C9A227" transform="rotate(292.5)"/>
    <ellipse cx="0" cy="-32" rx="7" ry="18" fill="#C9A227" transform="rotate(337.5)"/>
    <circle r="9" fill="#C9A227"/>
  </g>
  <rect x="40" y="30" width="1200" height="660" fill="none" stroke="#C9A227" stroke-width="1" opacity="0.16"/>
</svg>
