<svg xmlns="http://www.w3.org/2000/svg" viewBox="0 0 600 800" preserveAspectRatio="xMidYMid slice">
  <rect width="600" height="800" fill="#FAF7F0"/>
  <!-- subtle warm centre wash -->
  <radialGradient id="wg" cx="50%" cy="50%" r="55%">
    <stop offset="0%" stop-color="#F3EDE2"/>
    <stop offset="100%" stop-color="#FAF7F0"/>
  </radialGradient>
  <rect width="600" height="800" fill="url(#wg)"/>
  <!-- gold lotus motif -->
  <g transform="translate(300,390)" opacity="0.28">
    <ellipse cx="0" cy="-52" rx="10" ry="28" fill="#C9A227" transform="rotate(0)"/>
    <ellipse cx="0" cy="-52" rx="10" ry="28" fill="#C9A227" transform="rotate(45)"/>
    <ellipse cx="0" cy="-52" rx="10" ry="28" fill="#C9A227" transform="rotate(90)"/>
    <ellipse cx="0" cy="-52" rx="10" ry="28" fill="#C9A227" transform="rotate(135)"/>
    <ellipse cx="0" cy="-52" rx="10" ry="28" fill="#C9A227" transform="rotate(180)"/>
    <ellipse cx="0" cy="-52" rx="10" ry="28" fill="#C9A227" transform="rotate(225)"/>
    <ellipse cx="0" cy="-52" rx="10" ry="28" fill="#C9A227" transform="rotate(270)"/>
    <ellipse cx="0" cy="-52" rx="10" ry="28" fill="#C9A227" transform="rotate(315)"/>
    <ellipse cx="0" cy="-32" rx="7" ry="18" fill="#C9A227" transform="rotate(22.5)"/>
    <ellipse cx="0" cy="-32" rx="7" ry="18" fill="#C9A227" transform="rotate(67.5)"/>
    <ellipse cx="0" cy="-32" rx="7" ry="18" fill="#C9A227" transform="rotate(112.5)"/>
    <ellipse cx="0" cy="-32" rx="7" ry="18" fill="#C9A227" transform="rotate(157.5)"/>
    <ellipse cx="0" cy="-32" rx="7" ry="18" fill="#C9A227" transform="rotate(202.5)"/>
    <ellipse cx="0" cy="-32" rx="7" ry="18" fill="#C9A227" transform="rotate(247.5)"/>
    <ellipse cx="0" cy="-32" rx="7" ry="18" fill="#C9A227" transform="rotate(292.5)"/>
    <ellipse cx="0" cy="-32" rx="7" ry="18" fill="#C9A227" transform="rotate(337.5)"/>
    <circle r="9" fill="#C9A227"/>
  </g>
  <!-- gold hairline border -->
  <rect x="20" y="20" width="560" height="760" fill="none" stroke="#C9A227" stroke-width="1" opacity="0.3"/>
</svg>
